<svg width="39" height="14" viewBox="0 0 39 14" fill="none" xmlns="http://www.w3.org/2000/svg">
<path d="M4.30199 13.9943C3.13995 13.9478 2.18923 13.6275 1.44584 13.0327C1.30397 12.9191 0.965906 12.5783 0.85249 12.4346C0.551036 12.0528 0.346085 11.6813 0.209384 11.269C-0.211255 9.99994 0.00523138 8.33466 0.828611 6.50703C1.5336 4.94235 2.62141 3.3905 4.51928 1.2412C4.79884 0.924935 5.63137 0 5.63674 0C5.63875 0 5.59337 0.0791636 5.53626 0.17557C5.04279 1.00811 4.62056 1.98876 4.39054 2.83774C4.02103 4.2 4.0656 5.36905 4.52107 6.27554C4.83526 6.90005 5.3739 7.44098 5.97959 7.74001C7.03995 8.26331 8.59238 8.3066 10.4883 7.86668C10.6188 7.83621 17.0868 6.10679 24.8617 4.02343C32.6366 1.93986 38.999 0.236495 39 0.237897C39.0022 0.239701 20.9367 8.02601 11.5586 12.0655C10.0734 12.705 9.67622 12.8665 8.97801 13.1135C7.19316 13.7448 5.59436 14.046 4.30199 13.9943Z" fill="white"/>
</svg>
