<svg width="55" height="20" viewBox="0 0 55 20" fill="none" xmlns="http://www.w3.org/2000/svg">
<path d="M6.06691 19.9919C4.42814 19.9254 3.08738 19.4679 2.03901 18.6181C1.83893 18.4558 1.36217 17.9691 1.20223 17.7638C0.777102 17.2183 0.488069 16.6875 0.295286 16.0986C-0.297923 14.2856 0.00737762 11.9067 1.16855 9.29575C2.16276 7.0605 3.69687 4.84357 6.37334 1.77314C6.76759 1.32134 7.94168 0 7.94926 0C7.95208 0 7.88808 0.113091 7.80755 0.250815C7.11163 1.44016 6.51617 2.84109 6.19178 4.05392C5.67069 5.99999 5.73354 7.67007 6.37586 8.96506C6.81895 9.85722 7.57857 10.63 8.43275 11.0572C9.92813 11.8047 12.1175 11.8666 14.7911 11.2381C14.9752 11.1946 24.0968 8.72399 35.0614 5.74775C46.026 2.77123 54.9986 0.337849 55 0.339853C55.0031 0.34243 29.5261 11.4657 16.3005 17.2364C14.2061 18.15 13.646 18.3808 12.6613 18.7335C10.1442 19.6354 7.88949 20.0657 6.06691 19.9919Z" fill="white"/>
</svg>
